<svg xmlns="http://www.w3.org/2000/svg" xmlns:xlink="http://www.w3.org/1999/xlink" width="500" zoomAndPan="magnify" viewBox="0 0 375 374.999991" height="500" preserveAspectRatio="xMidYMid meet" version="1.0"><defs><clipPath id="10fef913ea"><path d="M 267.953125 132.167969 L 303.203125 132.167969 L 303.203125 187.667969 L 267.953125 187.667969 Z M 267.953125 132.167969 " clip-rule="nonzero"/></clipPath><clipPath id="c53b2e458f"><path d="M 268 161 L 303.203125 161 L 303.203125 187.667969 L 268 187.667969 Z M 268 161 " clip-rule="nonzero"/></clipPath><clipPath id="9f63affef2"><path d="M 46.332031 6 L 285 6 L 285 369 L 46.332031 369 Z M 46.332031 6 " clip-rule="nonzero"/></clipPath></defs><g clip-path="url(#10fef913ea)"><path fill="#8b0000" d="M 303.214844 169.871094 C 303.214844 179.597656 295.328125 187.484375 285.597656 187.484375 C 275.871094 187.484375 267.984375 179.597656 267.984375 169.871094 C 267.984375 160.144531 285.585938 132.160156 285.597656 132.1875 C 285.632812 132.257812 303.214844 160.144531 303.214844 169.871094 " fill-opacity="1" fill-rule="nonzero"/></g><g clip-path="url(#c53b2e458f)"><path fill="#8b0000" d="M 301.003906 161.296875 C 301.257812 162.414062 301.402344 163.429688 301.402344 164.296875 C 301.402344 174.023438 293.515625 181.910156 283.789062 181.910156 C 276.984375 181.910156 271.09375 178.050781 268.160156 172.402344 C 269.390625 180.929688 276.707031 187.484375 285.570312 187.484375 C 295.300781 187.484375 303.1875 179.597656 303.1875 169.871094 C 303.1875 167.730469 302.335938 164.707031 301.003906 161.296875 " fill-opacity="1" fill-rule="nonzero"/></g><g clip-path="url(#9f63affef2)"><path fill="#8b0000" d="M 106.21875 72.1875 C 102.359375 71.894531 98.851562 72.945312 95.695312 75.332031 C 96.015625 79.6875 96.257812 84.050781 96.507812 88.410156 C 97.03125 97.410156 97.75 106.441406 98.269531 115.472656 C 107.15625 109.074219 136.195312 111.847656 142.28125 112.34375 C 149.804688 112.960938 160.582031 112.304688 168.273438 115.839844 C 166.507812 100.703125 164.792969 85.589844 167.019531 70.414062 L 167.027344 70.390625 C 155.863281 68.453125 144.257812 70.058594 132.984375 71.03125 C 133.035156 72.988281 133.019531 74.941406 133.015625 76.898438 C 133.492188 77.167969 133.90625 77.550781 134.144531 78.183594 C 134.304688 78.609375 134.425781 79.035156 134.539062 79.460938 C 135.503906 80.417969 135.691406 82.117188 134.65625 83.0625 C 134.515625 83.542969 134.273438 84 133.964844 84.449219 C 133.476562 85.6875 132.136719 86.300781 130.90625 85.851562 C 130.132812 85.796875 129.351562 85.605469 128.710938 85.316406 C 126.980469 84.535156 126.046875 82.609375 126.324219 80.796875 C 126.496094 79.707031 127.191406 78.921875 128.0625 78.320312 C 128.085938 76.007812 128.082031 73.695312 128.023438 71.382812 C 120.769531 71.832031 113.476562 71.859375 106.21875 72.1875 Z M 103.132812 120.046875 C 112.960938 124.0625 124.507812 124.347656 134.9375 124.484375 C 145.691406 124.628906 158.484375 126.382812 168.496094 121.5625 C 162.667969 116.988281 150.492188 117.859375 143.988281 117.449219 C 137.441406 117.03125 130.996094 116.589844 124.425781 116.664062 C 121.757812 116.738281 119.097656 116.933594 116.445312 117.195312 C 115.617188 117.339844 100.570312 119.003906 103.132812 120.046875 Z M 137.898438 191.472656 C 137.601562 191.414062 137.316406 191.410156 137.015625 191.308594 C 135.84375 190.9375 134.863281 190.324219 134.007812 189.617188 C 133.738281 189.59375 133.449219 189.535156 133.152344 189.480469 L 132.949219 189.5 C 131.960938 189.394531 131.113281 189.148438 130.328125 188.835938 C 130.183594 188.820312 130.042969 188.855469 129.898438 188.820312 L 129.84375 188.804688 C 129.246094 189.375 128.398438 189.683594 127.511719 189.414062 C 125.90625 188.9375 124.773438 188.480469 123.992188 187.878906 C 125.921875 191.5 132.457031 191.722656 137.898438 191.472656 Z M 253.785156 300.570312 C 254.90625 288.03125 241.492188 265.492188 229.011719 281.964844 C 221.335938 292.109375 223.09375 308.113281 234.113281 314.605469 C 239.367188 317.707031 245.289062 317.863281 250.894531 316.308594 C 252.328125 311.109375 253.316406 305.816406 253.785156 300.570312 Z M 51.003906 13.683594 L 51.003906 28.792969 C 51.402344 28.644531 51.828125 28.558594 52.324219 28.632812 C 74.484375 31.96875 96.921875 29.320312 119.203125 29.140625 C 120.84375 29.128906 121.628906 30.421875 121.585938 31.695312 C 121.621094 31.871094 121.6875 32.015625 121.683594 32.222656 C 121.625 35.214844 122.25 41.765625 126.6875 40.886719 C 126.949219 40.832031 127.144531 40.722656 127.375 40.640625 C 127.414062 39.625 127.414062 38.613281 127.480469 37.597656 C 127.597656 35.832031 129.175781 35.078125 130.53125 35.273438 C 130.535156 34.023438 130.328125 32.753906 129.960938 31.683594 C 128.921875 28.644531 133.714844 27.355469 134.742188 30.363281 C 136.28125 34.863281 135.546875 40.234375 132.234375 43.371094 C 132.089844 50.953125 132.515625 58.53125 132.824219 66.109375 C 133.152344 66.082031 133.484375 66.082031 133.8125 66.058594 C 146.550781 65.179688 159.28125 63.160156 171.863281 66.285156 C 174.515625 66.941406 173.925781 70.496094 171.765625 71.058594 C 171.789062 71.273438 171.835938 71.488281 171.800781 71.730469 C 169.460938 87.679688 172.449219 104.375 174.613281 120.957031 C 174.90625 121.507812 174.972656 122.042969 174.808594 122.515625 C 176.824219 138.367188 177.925781 154.089844 172.703125 168.929688 C 169.121094 179.097656 158.347656 179.988281 148.988281 179.867188 C 148.785156 179.867188 148.578125 179.835938 148.375 179.832031 C 147.851562 184.421875 147.300781 189.007812 146.785156 193.597656 C 146.632812 194.949219 145.773438 196.066406 144.304688 196.074219 C 141.121094 196.105469 137.230469 196.34375 133.433594 196.164062 C 133.171875 228.046875 130.089844 260.148438 137.734375 291.480469 C 143.253906 314.121094 157.84375 334.992188 175.238281 350.160156 C 183.746094 357.582031 194.191406 363.125 205.578125 363.855469 C 220.226562 364.792969 231.609375 353.503906 239.117188 342.324219 C 243.347656 336.027344 246.757812 328.972656 249.265625 321.617188 L 249.0625 321.65625 C 231.960938 324.546875 218.808594 311.96875 219.65625 295.179688 C 220.371094 281.027344 234.195312 263.101562 248.824219 275.269531 C 260.441406 284.945312 260.390625 299.9375 256.691406 314.070312 C 260.582031 312.125 264.125 309.488281 266.914062 306.597656 C 276.265625 296.898438 279.078125 280.605469 279.78125 267.757812 C 280.609375 252.746094 275.480469 241.332031 265.433594 230.445312 C 251.402344 215.246094 235.914062 203.71875 234.164062 181.445312 C 233.042969 167.136719 236.269531 145.554688 248.535156 135.871094 C 247.878906 135.082031 247.261719 134.304688 246.667969 133.652344 C 245.730469 132.605469 245.726562 131.1875 246.667969 130.144531 C 249.996094 126.480469 253.699219 123.246094 258.003906 120.789062 C 258.457031 120.527344 258.9375 120.476562 259.402344 120.511719 C 260.171875 120.210938 261.050781 120.324219 261.757812 121.175781 C 262.335938 121.867188 262.898438 122.574219 263.46875 123.277344 C 265.527344 121.746094 279.855469 113.917969 281.675781 112.097656 C 283.9375 109.835938 268.746094 125.417969 266.570312 127.015625 C 267.355469 127.949219 268.09375 128.980469 268.09375 130.03125 C 268.09375 133.324219 264.367188 136.265625 262.132812 138.132812 C 259.84375 140.050781 257.234375 141.25 254.253906 140.484375 C 253.503906 140.300781 252.816406 139.921875 252.15625 139.46875 C 241.707031 147.125 239.617188 164.347656 239.066406 176.113281 C 238.308594 192.503906 246.914062 205.359375 258.117188 216.371094 C 266.34375 224.449219 275.1875 232.128906 280.488281 242.578125 C 285.324219 252.109375 285.5625 264.71875 284.152344 275.042969 C 281.574219 293.984375 273.570312 313.804688 254.886719 320.140625 C 253.050781 325.644531 250.816406 330.867188 248.6875 335.402344 C 239.5 354.964844 222.648438 371.332031 199.785156 368.214844 C 178.199219 365.265625 160.773438 344.753906 149.230469 328.007812 C 122.210938 288.800781 128.160156 240.6875 128.484375 195.59375 C 123.179688 194.535156 118.898438 191.832031 118.375 185.195312 C 118.132812 182.054688 119.101562 179.125 120.953125 176.917969 C 113.007812 176.371094 105.023438 176.6875 97.085938 175.757812 C 96.089844 175.640625 94.859375 175.097656 94.695312 173.933594 C 92.339844 157.269531 94.359375 140.597656 93.757812 123.855469 C 93.117188 106.285156 91.707031 88.609375 90.421875 71.074219 C 90.347656 70.082031 91.222656 68.820312 92.242188 68.675781 C 104.070312 67 115.96875 66.9375 127.867188 66.363281 C 127.597656 59.492188 127.210938 52.621094 127.234375 45.75 C 120.429688 46.890625 117.285156 40.023438 116.808594 34.148438 C 94.839844 34.472656 72.855469 36.710938 51.003906 33.417969 L 51.003906 342.625 C 51.003906 352.589844 46.042969 352.589844 46.042969 342.625 L 46.042969 13.683594 C 46.042969 3.722656 51.003906 3.722656 51.003906 13.683594 " fill-opacity="1" fill-rule="nonzero"/></g></svg>